<svg xmlns="http://www.w3.org/2000/svg" viewBox="0 0 1440 800" preserveAspectRatio="xMidYMid slice">
  <defs>
    <linearGradient id="grad1" x1="0%" y1="0%" x2="100%" y2="0%">
      <stop offset="0%" style="stop-color:#ffffff;stop-opacity:0.03" />
      <stop offset="100%" style="stop-color:#ffffff;stop-opacity:0.01" />
    </linearGradient>
  </defs>
  <path fill="url(#grad1)" d="M0,224L60,213.3C120,203,240,181,360,192C480,203,600,245,720,250.7C840,256,960,224,1080,213.3C1200,203,1320,213,1380,218.7L1440,224L1440,800L1380,800C1320,800,1200,800,1080,800C960,800,840,800,720,800C600,800,480,800,360,800C240,800,120,800,60,800L0,800Z"></path>
  <path fill="url(#grad1)" d="M0,400L60,394.7C120,389,240,379,360,394.7C480,411,600,453,720,453.3C840,453,960,411,1080,384C1200,357,1320,347,1380,341.3L1440,336L1440,800L1380,800C1320,800,1200,800,1080,800C960,800,840,800,720,800C600,800,480,800,360,800C240,800,120,800,60,800L0,800Z" transform="translate(0, 50)"></path>
  <path fill="url(#grad1)" d="M0,600L60,586.7C120,573,240,547,360,554.7C480,563,600,605,720,613.3C840,621,960,595,1080,576C1200,557,1320,547,1380,541.3L1440,536L1440,800L1380,800C1320,800,1200,800,1080,800C960,800,840,800,720,800C600,800,480,800,360,800C240,800,120,800,60,800L0,800Z" transform="translate(0, 100)"></path>
</svg>
